<svg xmlns="http://www.w3.org/2000/svg" width="122" height="30.341" viewBox="0 0 122 30.341">
  <g id="Group_1" data-name="Group 1" transform="translate(-84.001 -50.001)">
    <path id="Path_302" data-name="Path 302" d="M8620.814,1855.769h-12.474a3.484,3.484,0,0,1-2.266-.855,2.884,2.884,0,0,1-.8-2.158,2.652,2.652,0,0,1,.739-1.98,3.359,3.359,0,0,1,2.33-.869h10.387a4.946,4.946,0,0,1,3.59,1.4,3.354,3.354,0,0,0,3.793.445,3.1,3.1,0,0,0,1.559-2.582,3.129,3.129,0,0,0-1.235-2.621,9.8,9.8,0,0,0-6.881-2.672h-11.239a10.167,10.167,0,0,0-6.693,2.49,8.506,8.506,0,0,0-2.376,6.371,8.844,8.844,0,0,0,2.4,6.518,10.338,10.338,0,0,0,6.681,2.66h12.454a3.317,3.317,0,0,1,2.209.789,3.156,3.156,0,0,1,0,4.123,3.278,3.278,0,0,1-2.234.687h-10.865a6.467,6.467,0,0,1-4.031-1.378,3.1,3.1,0,0,0-3.729-.1,3.272,3.272,0,0,0-1.269,3.4,3.476,3.476,0,0,0,1.219,1.873,9.6,9.6,0,0,0,6.583,2.694h12.108c5.739,0,9.164-3.452,9.164-9.234a8.669,8.669,0,0,0-2.374-6.423A10.347,10.347,0,0,0,8620.814,1855.769Z" transform="translate(-8515.251 -1793.659)" fill="#030303"/>
    <path id="Path_303" data-name="Path 303" d="M8639.54,1846.679a5.136,5.136,0,0,0-5.863-2.777,5.429,5.429,0,0,0-3.51,3.016l-10.642,22.428a3.3,3.3,0,0,0-.287,2.205,3.269,3.269,0,0,0,3.682,2.5,3.437,3.437,0,0,0,2.534-2.019l8.679-18.7a.786.786,0,0,1,.73-.468h0a.789.789,0,0,1,.732.466l8.814,18.879a3.284,3.284,0,0,0,2.981,1.878,3.259,3.259,0,0,0,2.943-4.652Z" transform="translate(-8501.391 -1793.75)" fill="#030303"/>
    <path id="Path_304" data-name="Path 304" d="M8667.244,1845.912a3.225,3.225,0,0,0-3.043-2.161,3.371,3.371,0,0,0-3.091,2.063l-8.731,18.692a.79.79,0,0,1-.732.468h0a.794.794,0,0,1-.736-.47l-8.677-18.706a3.433,3.433,0,0,0-2.521-2.009,3.263,3.263,0,0,0-3.7,2.514,3.338,3.338,0,0,0,.288,2.192l10.755,22.667a5.125,5.125,0,0,0,9.26,0l10.728-22.618A3.443,3.443,0,0,0,8667.244,1845.912Z" transform="translate(-8489.7 -1793.75)" fill="#030303"/>
    <path id="Path_305" data-name="Path 305" d="M8683.735,1869.356l-10.756-22.677a5.124,5.124,0,0,0-9.26,0l-10.764,22.686a3.308,3.308,0,0,0-.282,2.172,3.269,3.269,0,0,0,3.729,2.511,3.373,3.373,0,0,0,2.468-1.966l1.684-3.624a1.142,1.142,0,0,1,1.037-.661h13.473a1.147,1.147,0,0,1,1.036.658l1.753,3.76a3.283,3.283,0,0,0,6.173-.7A3.335,3.335,0,0,0,8683.735,1869.356Zm-18.922-7.378a.8.8,0,0,1-.727-1.137l3.483-7.505a.787.787,0,0,1,.733-.468h0a.791.791,0,0,1,.732.466l3.5,7.505a.8.8,0,0,1-.726,1.138Z" transform="translate(-8478.097 -1793.75)" fill="#030303"/>
  </g>
</svg>
