<svg id="Documents_and_calculator" data-name="Documents and calculator" xmlns="http://www.w3.org/2000/svg" width="49.073" height="49.073" viewBox="0 0 49.073 49.073">
  <path id="Path_362" data-name="Path 362" d="M46.006,18.4H34.76V10.224h7.157A1.022,1.022,0,0,0,42.939,9.2V5.112A5.112,5.112,0,0,0,37.827,0H5.112A5.112,5.112,0,0,0,0,5.112v38.85a1.022,1.022,0,0,0,1.022,1.022H24.537v1.022A3.067,3.067,0,0,0,27.6,49.073h18.4a3.067,3.067,0,0,0,3.067-3.067V21.47A3.067,3.067,0,0,0,46.006,18.4ZM40.894,5.112V8.179H34.76V5.112a3.067,3.067,0,1,1,6.134,0ZM2.045,42.939V5.112A3.067,3.067,0,0,1,5.112,2.045H33.738c-1.36,1.8-1.022,1.789-1.022,16.358H27.6a3.067,3.067,0,0,0-3.067,3.067v21.47Zm44.984,3.067a1.022,1.022,0,0,1-1.022,1.022H27.6a1.022,1.022,0,0,1-1.022-1.022V21.47A1.022,1.022,0,0,1,27.6,20.447h18.4a1.022,1.022,0,0,1,1.022,1.022Z" fill="#fff"/>
  <path id="Path_363" data-name="Path 363" d="M43.335,22H29.022A1.022,1.022,0,0,0,28,23.022V31.2a1.022,1.022,0,0,0,1.022,1.022H43.335A1.022,1.022,0,0,0,44.358,31.2V23.022A1.022,1.022,0,0,0,43.335,22Zm-1.022,8.179H30.045V24.045H42.313Z" transform="translate(0.626 0.492)" fill="#fff"/>
  <path id="Path_364" data-name="Path 364" d="M37.067,34H35.022a1.022,1.022,0,0,0,0,2.045h2.045a1.022,1.022,0,0,0,0-2.045Z" transform="translate(0.76 0.76)" fill="#fff"/>
  <path id="Path_365" data-name="Path 365" d="M31.067,34H29.022a1.022,1.022,0,1,0,0,2.045h2.045a1.022,1.022,0,0,0,0-2.045Z" transform="translate(0.626 0.76)" fill="#fff"/>
  <path id="Path_366" data-name="Path 366" d="M43.067,34H41.022a1.022,1.022,0,0,0,0,2.045h2.045a1.022,1.022,0,0,0,0-2.045Z" transform="translate(0.894 0.76)" fill="#fff"/>
  <path id="Path_367" data-name="Path 367" d="M37.067,38H35.022a1.022,1.022,0,0,0,0,2.045h2.045a1.022,1.022,0,0,0,0-2.045Z" transform="translate(0.76 0.85)" fill="#fff"/>
  <path id="Path_368" data-name="Path 368" d="M31.067,38H29.022a1.022,1.022,0,0,0,0,2.045h2.045a1.022,1.022,0,0,0,0-2.045Z" transform="translate(0.626 0.85)" fill="#fff"/>
  <path id="Path_369" data-name="Path 369" d="M43.067,38H41.022a1.022,1.022,0,0,0,0,2.045h2.045a1.022,1.022,0,0,0,0-2.045Z" transform="translate(0.894 0.85)" fill="#fff"/>
  <path id="Path_370" data-name="Path 370" d="M37.067,42H35.022a1.022,1.022,0,0,0,0,2.045h2.045a1.022,1.022,0,0,0,0-2.045Z" transform="translate(0.76 0.939)" fill="#fff"/>
  <path id="Path_371" data-name="Path 371" d="M31.067,42H29.022a1.022,1.022,0,0,0,0,2.045h2.045a1.022,1.022,0,0,0,0-2.045Z" transform="translate(0.626 0.939)" fill="#fff"/>
  <path id="Path_372" data-name="Path 372" d="M43.067,42H41.022a1.022,1.022,0,0,0,0,2.045h2.045a1.022,1.022,0,0,0,0-2.045Z" transform="translate(0.894 0.939)" fill="#fff"/>
  <path id="Path_373" data-name="Path 373" d="M21.335,19H7.022a1.022,1.022,0,0,0,0,2.045H21.335a1.022,1.022,0,0,0,0-2.045Z" transform="translate(0.134 0.425)" fill="#fff"/>
  <path id="Path_374" data-name="Path 374" d="M21.335,29H7.022a1.022,1.022,0,0,0,0,2.045H21.335a1.022,1.022,0,0,0,0-2.045Z" transform="translate(0.134 0.648)" fill="#fff"/>
  <path id="Path_375" data-name="Path 375" d="M7.022,11.045H27.47A1.022,1.022,0,0,0,27.47,9H7.022a1.022,1.022,0,1,0,0,2.045Z" transform="translate(0.134 0.201)" fill="#fff"/>
  <path id="Path_376" data-name="Path 376" d="M7.022,16.045H27.47a1.022,1.022,0,0,0,0-2.045H7.022a1.022,1.022,0,0,0,0,2.045Z" transform="translate(0.134 0.313)" fill="#fff"/>
  <path id="Path_377" data-name="Path 377" d="M21.335,24H7.022a1.022,1.022,0,0,0,0,2.045H21.335a1.022,1.022,0,0,0,0-2.045Z" transform="translate(0.134 0.537)" fill="#fff"/>
  <path id="Path_378" data-name="Path 378" d="M21.335,34H7.022a1.022,1.022,0,0,0,0,2.045H21.335a1.022,1.022,0,0,0,0-2.045Z" transform="translate(0.134 0.76)" fill="#fff"/>
</svg>
