<svg xmlns="http://www.w3.org/2000/svg" width="47.298" height="47.297" viewBox="0 0 47.298 47.297">
  <g id="_36_Multicolor_Flag_mc_36_flag_south_africa" data-name="36 Multicolor / Flag / mc_36_flag_south_africa" transform="translate(0)">
    <g id="mc_36_flag_South-Africa" transform="translate(0 0)">
      <path id="Oval" d="M23.648,47.3A23.648,23.648,0,1,0,0,23.648,23.648,23.648,0,0,0,23.648,47.3Z" transform="translate(0.001 0)" fill="#f0f0f0"/>
      <path id="Path" d="M6.926,38.716a23.647,23.647,0,0,1,0-33.444S20.564,21.994,20.564,21.994Z" transform="translate(0 1.654)" fill="#3d3d3d"/>
      <path id="Path_2" d="M20.155,20.813,2.728,9.036A23.571,23.571,0,0,0,1.3,11.97l8.823,8.843L1.3,29.655a23.33,23.33,0,0,0,1.425,2.932Z" transform="translate(0.409 2.836)" fill="#ffda44"/>
      <path id="Path_3" d="M46.348,18.909H19.814L6.177,5.272a23.741,23.741,0,0,0-3.79,4.945L14.142,21.994,2.387,33.77a23.741,23.741,0,0,0,3.79,4.946L19.814,25.079H46.348a23.887,23.887,0,0,0,0-6.17Z" transform="translate(0.75 1.654)" fill="#6da544"/>
      <path id="Path_4" d="M7.04,35.287A23.654,23.654,0,0,0,44.273,22.7H19.631Z" transform="translate(2.21 7.122)" fill="#0052b4"/>
      <path id="Path_5" d="M44.273,17.479A23.652,23.652,0,0,0,7.041,4.889l12.59,12.59Z" transform="translate(2.21 0)" fill="#d80027"/>
    </g>
  </g>
</svg>
