<svg xmlns="http://www.w3.org/2000/svg" width="80" height="80" viewBox="0 0 80 80">
  <g id="Group_1405" data-name="Group 1405" transform="translate(-316 -7244)">
    <circle id="Ellipse_133" data-name="Ellipse 133" cx="40" cy="40" r="40" transform="translate(316 7244)" fill="#030303"/>
    <g id="calendar" transform="translate(339 7267)">
      <path id="Path_341" data-name="Path 341" d="M31.245,22.843a7.169,7.169,0,0,0-5.372-11.08v-7.4a2.615,2.615,0,0,0-2.612-2.612H21.767V0H19.446V1.756H14.1V0H11.776V1.756H6.428V0H4.106V1.756H2.612A2.615,2.615,0,0,0,0,4.368V23.653a2.615,2.615,0,0,0,2.612,2.612H16.55v3.72c0,.9.514,2.163,2.965,3.076a17,17,0,0,0,5.739.9,17,17,0,0,0,5.739-.9c2.45-.913,2.965-2.177,2.965-3.076V25.823h0c0-1.241-.95-2.269-2.712-2.98Zm.386,2.98c-.061.129-.457.57-1.687.985a15.212,15.212,0,0,1-4.69.666,15.212,15.212,0,0,1-4.69-.666c-1.23-.415-1.626-.856-1.687-.985.072-.156.6-.691,2.147-1.127a7.151,7.151,0,0,0,8.46,0c1.551.436,2.075.971,2.147,1.127ZM30.1,18.909a4.848,4.848,0,1,1-4.848-4.851A4.855,4.855,0,0,1,30.1,18.909ZM2.322,4.368a.291.291,0,0,1,.29-.29H4.106v1.7H6.428v-1.7h5.348v1.7H14.1v-1.7h5.348v1.7h2.322v-1.7h1.494a.291.291,0,0,1,.29.29V7.552H2.322Zm.29,19.576a.291.291,0,0,1-.29-.29V9.874h21.23v2.067a7.17,7.17,0,0,0-4.29,10.9,5.846,5.846,0,0,0-1.829,1.1Zm29.024,6.03c-.04.112-.421.568-1.692,1a15.212,15.212,0,0,1-4.69.666,15.212,15.212,0,0,1-4.69-.666c-1.271-.429-1.652-.885-1.692-1V28.632q.3.138.643.267a17,17,0,0,0,5.739.9,17,17,0,0,0,5.739-.9q.347-.129.643-.267Z" fill="#fff"/>
      <g id="Group_1207" data-name="Group 1207" transform="translate(23.25 15.214)">
        <path id="Path_342" data-name="Path 342" d="M322.851,212.6c-.72-.3-.72-.41-.72-.509s.054-.254.412-.254a2.224,2.224,0,0,1,1.227.464l.506-1.339a2.948,2.948,0,0,0-1.135-.479v-.814h-1.356v.9a1.675,1.675,0,0,0-1.2,1.618c0,1.024.846,1.488,1.582,1.777.63.255.63.438.63.547,0,.212-.2.349-.515.349a2.38,2.38,0,0,1-1.366-.575l-.487,1.359a2.776,2.776,0,0,0,1.3.582v.843h1.364v-.924a1.774,1.774,0,0,0,1.257-1.689,2.014,2.014,0,0,0-1.5-1.855C322.131,212.306,323.495,212.866,322.851,212.6Z" transform="translate(-320.428 -209.673)" fill="#fff"/>
      </g>
    </g>
  </g>
</svg>
