<svg xmlns="http://www.w3.org/2000/svg" width="47.088" height="48.136" viewBox="0 0 47.088 48.136">
  <g id="invoice-2" transform="translate(-5.576)">
    <g id="Group_1219" data-name="Group 1219" transform="translate(18.656 17.789)">
      <g id="Group_1218" data-name="Group 1218">
        <path id="Path_382" data-name="Path 382" d="M149.41,198.1a1.57,1.57,0,1,1,1.57-1.57,1.57,1.57,0,0,0,3.139,0,4.716,4.716,0,0,0-3.139-4.442v-1.314a1.57,1.57,0,0,0-3.139,0v1.314a4.71,4.71,0,0,0,1.57,9.15,1.57,1.57,0,1,1-1.57,1.57,1.57,1.57,0,1,0-3.139,0,4.716,4.716,0,0,0,3.139,4.442v1.314a1.57,1.57,0,0,0,3.139,0v-1.314a4.71,4.71,0,0,0-1.57-9.15Z" transform="translate(-144.701 -189.209)" fill="#030303"/>
      </g>
    </g>
    <g id="Group_1221" data-name="Group 1221" transform="translate(5.576)">
      <g id="Group_1220" data-name="Group 1220" transform="translate(0)">
        <path id="Path_383" data-name="Path 383" d="M44.816,0H13.424A7.857,7.857,0,0,0,5.576,7.848V46.565a1.571,1.571,0,0,0,2.55,1.226l2.943-2.355,2.943,2.355a1.57,1.57,0,0,0,1.961,0l2.943-2.355,2.943,2.355a1.57,1.57,0,0,0,1.961,0l2.943-2.355,2.944,2.355a1.569,1.569,0,0,0,1.961,0l2.944-2.355,2.944,2.355a1.57,1.57,0,0,0,2.55-1.226V21.974h7.848a4.714,4.714,0,0,0,4.709-4.709V7.848A7.857,7.857,0,0,0,44.816,0ZM36.968,7.848V43.3l-1.374-1.1a1.569,1.569,0,0,0-1.961,0l-2.944,2.355L27.746,42.2a1.57,1.57,0,0,0-1.961,0l-2.943,2.355L19.9,42.2a1.57,1.57,0,0,0-1.961,0l-2.943,2.355L12.05,42.2a1.57,1.57,0,0,0-1.961,0L8.715,43.3V7.848a4.714,4.714,0,0,1,4.709-4.709H38.541A7.809,7.809,0,0,0,36.968,7.848Zm12.557,9.418a1.571,1.571,0,0,1-1.57,1.57H40.107V7.848a4.709,4.709,0,1,1,9.418,0v9.418Z" transform="translate(-5.576)" fill="#030303"/>
      </g>
    </g>
    <g id="Group_1223" data-name="Group 1223" transform="translate(11.854 6.278)">
      <g id="Group_1222" data-name="Group 1222">
        <path id="Path_384" data-name="Path 384" d="M92.761,66.78H73.926a1.57,1.57,0,0,0,0,3.139H92.761a1.57,1.57,0,0,0,0-3.139Z" transform="translate(-72.356 -66.78)" fill="#030303"/>
      </g>
    </g>
    <g id="Group_1225" data-name="Group 1225" transform="translate(11.854 12.557)">
      <g id="Group_1224" data-name="Group 1224">
        <path id="Path_385" data-name="Path 385" d="M92.761,133.56H73.926a1.57,1.57,0,0,0,0,3.139H92.761a1.57,1.57,0,1,0,0-3.139Z" transform="translate(-72.356 -133.56)" fill="#030303"/>
      </g>
    </g>
  </g>
</svg>
