<svg xmlns="http://www.w3.org/2000/svg" width="48.831" height="48.836" viewBox="0 0 48.831 48.836">
  <g id="money-2" transform="translate(0.351 0.356)">
    <path id="Path_379" data-name="Path 379" d="M46.526,30.481h-6.8a22.564,22.564,0,0,0-8.377-12.709,2.394,2.394,0,0,0-.668-3.914l2.086-7.365a3.2,3.2,0,0,0-3.076-4.089H28.236a4.813,4.813,0,0,0-8.343,0H18.442A3.2,3.2,0,0,0,15.368,6.49l2.086,7.369a2.394,2.394,0,0,0-.667,3.915,22.742,22.742,0,0,0-8.38,12.707h-6A2.4,2.4,0,0,0,.625,34.492a2.37,2.37,0,0,0,0,3.209,2.383,2.383,0,0,0,.5,3.633,2.326,2.326,0,0,0,0,2.36,2.4,2.4,0,0,0,1.283,4.435H15.241a2.4,2.4,0,0,0,2.135-1.319,17.681,17.681,0,0,0,6.689,1.319H46.526a1.6,1.6,0,0,0,1.6-1.6V32.086A1.6,1.6,0,0,0,46.526,30.481Zm0,3.9a3.2,3.2,0,0,1-2.293-2.293h2.293ZM18.45,16.844a.8.8,0,0,1,0-1.6H29.68a.8.8,0,0,1,0,1.6Zm-1.279-12.2a1.579,1.579,0,0,1,1.27-.637h.882a4.84,4.84,0,0,0-.071.8V8.02a.8.8,0,0,0,1.6,0V4.812a3.178,3.178,0,0,1,.266-1.283h0a3.209,3.209,0,0,1,5.883,0h0a3.178,3.178,0,0,1,.268,1.283V8.02a.8.8,0,1,0,1.6,0V4.812a4.84,4.84,0,0,0-.072-.8h.882a1.6,1.6,0,0,1,1.531,2.044l-2.145,7.582H19.056L16.91,6.049a1.586,1.586,0,0,1,.261-1.4ZM2.406,32.086H15.241a.8.8,0,0,1,0,1.6H2.406a.8.8,0,0,1,0-1.6Zm0,10.428a.8.8,0,0,1,.8-.8H16.043a.8.8,0,1,1,0,1.6H3.208A.8.8,0,0,1,2.406,42.514Zm0-2.407a.8.8,0,0,1,0-1.6H15.241a.8.8,0,0,1,0,1.6ZM1.6,36.1a.8.8,0,0,1,.8-.8H15.241a.8.8,0,0,1,0,1.6H2.406A.8.8,0,0,1,1.6,36.1ZM15.241,46.525H2.406a.8.8,0,0,1,0-1.6H15.241a.8.8,0,0,1,0,1.6Zm2.326-1.383a2.406,2.406,0,0,0-.241-.6,2.393,2.393,0,0,0,0-4.057,2.351,2.351,0,0,0-.3-2.784,2.37,2.37,0,0,0,0-3.209,2.4,2.4,0,0,0-1.781-4.011H10.049c1.186-4.723,4.75-9.728,8.63-12.033H29.451C34.374,21.367,38.5,28.291,38.5,33.69c0,7.077-6.478,12.835-14.439,12.835a16.034,16.034,0,0,1-6.5-1.383ZM40.108,33.69a13.558,13.558,0,0,0-.11-1.6h2.589a4.819,4.819,0,0,0,3.939,3.939v6.562a4.819,4.819,0,0,0-3.939,3.939H31.382C36.556,44.125,40.108,39.279,40.108,33.69Zm4.125,12.835a3.2,3.2,0,0,1,2.293-2.293v2.293Z" transform="translate(0 0)" fill="#030303"/>
    <path id="Path_379_-_Outline" data-name="Path 379 - Outline" d="M2.4,48.479A2.752,2.752,0,0,1,.675,43.584a2.679,2.679,0,0,1,0-2.14,2.734,2.734,0,0,1-.5-3.743,2.72,2.72,0,0,1,0-3.21A2.746,2.746,0,0,1,2.4,30.131H8.134a23.166,23.166,0,0,1,8.139-12.4,2.744,2.744,0,0,1,.766-4.047L15.031,6.585a3.554,3.554,0,0,1,3.41-4.53H19.7a5.163,5.163,0,0,1,8.738,0h1.253A3.555,3.555,0,0,1,33.1,6.59l-2.008,7.09a2.744,2.744,0,0,1,.768,4.045A22.976,22.976,0,0,1,40,30.131h6.53a1.957,1.957,0,0,1,1.954,1.954V46.525a1.957,1.957,0,0,1-1.954,1.954H24.065a17.939,17.939,0,0,1-6.539-1.232,2.736,2.736,0,0,1-2.284,1.232ZM2.4,30.831A2.046,2.046,0,0,0,.884,34.256l.216.237-.217.236a2.032,2.032,0,0,0,0,2.735L1.1,37.7l-.217.237a2.033,2.033,0,0,0,.424,3.1l.29.18-.173.294a1.977,1.977,0,0,0,0,2l.172.293-.288.181A2.052,2.052,0,0,0,2.4,47.779h12.84a2.04,2.04,0,0,0,1.822-1.126l.146-.289.3.123a17.249,17.249,0,0,0,6.557,1.293H46.526a1.256,1.256,0,0,0,1.254-1.254V32.086a1.256,1.256,0,0,0-1.254-1.254H39.448l-.065-.267a22.269,22.269,0,0,0-8.247-12.512l-.33-.248.3-.285a2.044,2.044,0,0,0-.571-3.342l-.275-.124L32.426,6.4a2.855,2.855,0,0,0-2.739-3.643H28.034l-.1-.175a4.463,4.463,0,0,0-7.736,0l-.1.175H18.442A2.854,2.854,0,0,0,15.7,6.394l2.168,7.66-.275.124a2.044,2.044,0,0,0-.569,3.343l.3.284L17,18.053A22.458,22.458,0,0,0,8.746,30.565l-.066.266ZM42.882,46.875h-11.5l-.147-.668A15.312,15.312,0,0,0,37.4,41.1a12.959,12.959,0,0,0,2.361-7.414,13.248,13.248,0,0,0-.107-1.56l-.051-.395h3.282l.05.291a4.476,4.476,0,0,0,3.653,3.653l.291.05v7.152l-.291.05a4.476,4.476,0,0,0-3.653,3.653Zm-10.061-.7H42.3A5.179,5.179,0,0,1,46.176,42.3V36.311A5.179,5.179,0,0,1,42.3,32.436h-1.91c.041.416.064.835.068,1.251A13.658,13.658,0,0,1,37.973,41.5,15.8,15.8,0,0,1,32.821,46.175Zm14.055.7h-3.1l.114-.438a3.554,3.554,0,0,1,2.543-2.543l.438-.114Zm-2.151-.7h1.451V44.724A2.856,2.856,0,0,0,44.725,46.175Zm-20.66.7a16.283,16.283,0,0,1-6.64-1.413l-.156-.069-.042-.165a2.057,2.057,0,0,0-.206-.512l-.166-.292.284-.178a2.043,2.043,0,0,0,0-3.464l-.288-.18.171-.293a1.99,1.99,0,0,0-.259-2.37l-.22-.237.219-.238a2.032,2.032,0,0,0,0-2.735l-.217-.236.216-.237a2.046,2.046,0,0,0-1.512-3.425H9.6l.109-.435a21.482,21.482,0,0,1,3.359-7.042A18.88,18.88,0,0,1,18.5,18.148l.083-.049H29.547l.083.049a19.519,19.519,0,0,1,6.5,6.813,17.725,17.725,0,0,1,2.729,8.73C38.854,40.96,32.22,46.875,24.065,46.875Zm-6.207-1.988a15.583,15.583,0,0,0,6.207,1.288c7.768,0,14.089-5.6,14.089-12.485a17.025,17.025,0,0,0-2.631-8.372A18.889,18.889,0,0,0,29.354,18.8H18.775a18.271,18.271,0,0,0-5.138,4.963,21.073,21.073,0,0,0-3.134,6.37h4.748a2.746,2.746,0,0,1,2.222,4.36,2.72,2.72,0,0,1,0,3.209,2.68,2.68,0,0,1,.3,2.675,2.744,2.744,0,0,1,0,4.281Q17.82,44.769,17.858,44.887Zm-2.617,1.988H2.406a1.152,1.152,0,0,1,0-2.3H15.241a1.152,1.152,0,0,1,0,2.3ZM2.406,45.27a.452.452,0,1,0,0,.9H15.241a.452.452,0,1,0,0-.9Zm13.637-1.6H3.208a1.152,1.152,0,0,1,0-2.3H16.043a1.152,1.152,0,0,1,0,2.3Zm-12.835-1.6a.452.452,0,0,0,0,.9H16.043a.452.452,0,0,0,0-.9Zm12.033-1.6H2.406a1.152,1.152,0,0,1,0-2.3H15.241a1.152,1.152,0,0,1,0,2.3Zm-12.835-1.6a.452.452,0,0,0,0,.9H15.241a.452.452,0,0,0,0-.9Zm12.835-1.6H2.406a1.152,1.152,0,0,1,0-2.3H15.241a1.152,1.152,0,0,1,0,2.3Zm-12.835-1.6a.452.452,0,1,0,0,.9H15.241a.452.452,0,1,0,0-.9Zm44.47-.813-.438-.114a3.554,3.554,0,0,1-2.543-2.543l-.114-.438h3.1Zm-2.151-2.4a2.856,2.856,0,0,0,1.451,1.451V32.436Zm-29.484,1.6H2.406a1.152,1.152,0,0,1,0-2.3H15.241a1.152,1.152,0,0,1,0,2.3Zm-12.835-1.6a.452.452,0,1,0,0,.9H15.241a.452.452,0,1,0,0-.9ZM29.68,17.194H18.45a1.152,1.152,0,0,1,0-2.3H29.68a1.152,1.152,0,0,1,0,2.3Zm-11.23-1.6a.452.452,0,0,0,0,.9H29.68a.452.452,0,0,0,0-.9Zm10.889-1.6H18.791L16.574,6.145A1.95,1.95,0,0,1,18.439,3.66h1.3l-.071.41a4.5,4.5,0,0,0-.066.744V8.02a.452.452,0,0,0,.9,0V4.812a3.505,3.505,0,0,1,.3-1.424,3.559,3.559,0,0,1,6.525,0,3.506,3.506,0,0,1,.3,1.424V8.02a.452.452,0,1,0,.9,0V4.812a4.5,4.5,0,0,0-.067-.742l-.072-.41h1.3a1.954,1.954,0,0,1,1.867,2.49Zm-10.018-.7h9.488l2.073-7.327a1.254,1.254,0,0,0-1.2-1.6h-.48c.014.15.022.3.023.45V8.02a1.152,1.152,0,0,1-2.3,0V4.812a2.812,2.812,0,0,0-.238-1.143,2.859,2.859,0,0,0-5.242,0,2.812,2.812,0,0,0-.237,1.143V8.02a1.152,1.152,0,0,1-2.3,0V4.812c0-.151.008-.3.022-.452h-.486a1.25,1.25,0,0,0-1.192,1.592Z" transform="translate(0 0)" fill="#030303"/>
    <path id="Path_380" data-name="Path 380" d="M53.407,50.813A2.407,2.407,0,1,0,51,48.407,2.407,2.407,0,0,0,53.407,50.813Zm0-3.209a.8.8,0,1,1-.8.8A.8.8,0,0,1,53.407,47.6Z" transform="translate(-10.089 -9.101)" fill="#030303"/>
    <path id="Path_380_-_Outline" data-name="Path 380 - Outline" d="M53.407,51.163a2.757,2.757,0,1,1,2.757-2.757A2.76,2.76,0,0,1,53.407,51.163Zm0-4.813a2.057,2.057,0,1,0,2.057,2.057A2.059,2.059,0,0,0,53.407,46.35Zm0,3.209a1.152,1.152,0,1,1,1.152-1.152A1.153,1.153,0,0,1,53.407,49.559Zm0-1.6a.452.452,0,1,0,.452.452A.453.453,0,0,0,53.407,47.954Z" transform="translate(-10.089 -9.101)" fill="#030303"/>
    <path id="Path_381" data-name="Path 381" d="M31.416,34.813a.8.8,0,1,0,1.6,0,4.018,4.018,0,0,0-3.209-3.931V30.8a.8.8,0,1,0-1.6,0v.08a4.011,4.011,0,0,0,0,7.861V43.49a2.407,2.407,0,0,1-1.6-2.26.8.8,0,0,0-1.6,0,4.018,4.018,0,0,0,3.209,3.931v.08a.8.8,0,1,0,1.6,0v-.08a4.011,4.011,0,0,0,0-7.861V32.554a2.407,2.407,0,0,1,1.6,2.259Zm-4.813,0a2.407,2.407,0,0,1,1.6-2.259v4.518a2.407,2.407,0,0,1-1.6-2.259Zm4.813,6.417a2.407,2.407,0,0,1-1.6,2.259V38.972a2.407,2.407,0,0,1,1.6,2.259Z" transform="translate(-4.945 -5.936)" fill="#030303"/>
    <path id="Path_381_-_Outline" data-name="Path 381 - Outline" d="M29.01,29.65a1.154,1.154,0,0,1,1.135.952,4.387,4.387,0,0,1,3.226,4.211,1.152,1.152,0,1,1-2.3,0,2.061,2.061,0,0,0-.9-1.693v3.9a4.361,4.361,0,0,1-.018,8.419,1.152,1.152,0,0,1-2.269,0,4.387,4.387,0,0,1-3.226-4.211,1.152,1.152,0,1,1,2.3,0,2.061,2.061,0,0,0,.9,1.694v-3.9a4.361,4.361,0,0,1,.018-8.419A1.154,1.154,0,0,1,29.01,29.65Zm3.209,5.615a.453.453,0,0,0,.452-.452,3.682,3.682,0,0,0-2.929-3.588l-.28-.057V30.8a.452.452,0,0,0-.9,0v.366l-.28.057a3.661,3.661,0,0,0,0,7.175l.28.057v5.527l-.467-.165a2.763,2.763,0,0,1-1.838-2.588.452.452,0,1,0-.9,0,3.682,3.682,0,0,0,2.929,3.588l.279.057v.366a.452.452,0,0,0,.9,0v-.366l.28-.057a3.661,3.661,0,0,0,0-7.175l-.28-.057V32.059l.467.165a2.763,2.763,0,0,1,1.838,2.587A.453.453,0,0,0,32.219,35.265Zm-3.661-3.206v5.508l-.467-.165a2.742,2.742,0,0,1,0-5.178Zm-.7,4.447V33.12a2.037,2.037,0,0,0,0,3.386Zm1.6,1.97.467.165a2.742,2.742,0,0,1,0,5.178l-.467.165Zm.7,4.447a2.037,2.037,0,0,0,0-3.386Z" transform="translate(-4.945 -5.936)" fill="#030303"/>
  </g>
</svg>
