<svg id="paid" xmlns="http://www.w3.org/2000/svg" width="47.794" height="47.795" viewBox="0 0 47.794 47.795">
  <path id="Path_356" data-name="Path 356" d="M128.022,135.693h-.079a1.424,1.424,0,0,1-1.422-1.422h-2.8a4.23,4.23,0,0,0,2.914,4.014V140.4h2.8v-2.147a4.273,4.273,0,0,0-1.413-8.306h-.051a1.473,1.473,0,0,1,0-2.946h.015a1.477,1.477,0,0,1,1.475,1.475h2.8a4.282,4.282,0,0,0-2.826-4.022v-2.159h-2.8v2.121a4.273,4.273,0,0,0,1.336,8.332h.051a1.473,1.473,0,1,1,0,2.946Z" transform="translate(-112.151 -110.878)" fill="#fff"/>
  <path id="Path_357" data-name="Path 357" d="M250.875,120.5H258.2v2.8h-7.328Z" transform="translate(-227.456 -109.251)" fill="#fff"/>
  <path id="Path_358" data-name="Path 358" d="M250.875,180.75H258.2v2.8h-7.328Z" transform="translate(-227.456 -163.877)" fill="#fff"/>
  <path id="Path_359" data-name="Path 359" d="M250.875,241H258.2v2.8h-7.328Z" transform="translate(-227.456 -218.503)" fill="#fff"/>
  <path id="Path_360" data-name="Path 360" d="M36.546,24.6V5.624H30.922V0H0V42.17H5.624v5.624H36.2a11.6,11.6,0,0,0,.35-23.191ZM2.8,39.37V2.8H28.121V5.624H5.624V39.37Zm5.624,5.624V8.425H33.745V24.859a11.64,11.64,0,0,0-8.657,8H12.073v8.425h13.7a11.668,11.668,0,0,0,2.874,3.715Zm16.4-6.515h-9.95V35.655H24.61A11.576,11.576,0,0,0,24.824,38.479ZM36.2,44.994a8.8,8.8,0,1,1,8.8-8.8A8.808,8.808,0,0,1,36.2,44.994Z" fill="#fff"/>
  <path id="Path_361" data-name="Path 361" d="M329.406,346.778l-2.355-2.6-2.074,1.882,4.242,4.677,7.2-6.571-1.888-2.068Z" transform="translate(-294.641 -310.166)" fill="#fff"/>
</svg>
